<svg width="32" height="32" viewBox="0 0 32 32" fill="none" xmlns="http://www.w3.org/2000/svg">
<path d="M16 2.66663V5.33329" stroke="#20293A" stroke-width="2.66667" stroke-linecap="round" stroke-linejoin="round"/>
<path d="M6.5733 6.57336L8.4533 8.45336" stroke="#20293A" stroke-width="2.66667" stroke-linecap="round" stroke-linejoin="round"/>
<path d="M26.6667 16H29.3334" stroke="#20293A" stroke-width="2.66667" stroke-linecap="round" stroke-linejoin="round"/>
<path d="M25.4267 6.57336L23.5467 8.45336" stroke="#20293A" stroke-width="2.66667" stroke-linecap="round" stroke-linejoin="round"/>
<path d="M21.2627 16.8667C21.4268 15.8727 21.306 14.8526 20.9143 13.9244C20.5226 12.9962 19.876 12.1979 19.0494 11.622C18.2227 11.0461 17.2499 10.7161 16.2435 10.6702C15.2371 10.6243 14.2383 10.8644 13.3627 11.3627" stroke="#20293A" stroke-width="2.66667" stroke-linecap="round" stroke-linejoin="round"/>
<path d="M17.3333 29.3333H9.33334C8.07197 29.3331 6.83655 28.975 5.77057 28.3006C4.70459 27.6263 3.8518 26.6633 3.31124 25.5237C2.77068 24.384 2.56454 23.1143 2.71675 21.8622C2.86897 20.61 3.37329 19.4267 4.17115 18.4498C4.96901 17.4728 6.02767 16.7422 7.22417 16.3429C8.42066 15.9436 9.7059 15.8919 10.9306 16.1938C12.1553 16.4958 13.2692 17.139 14.1429 18.0487C15.0167 18.9585 15.6144 20.0974 15.8667 21.3333H17.3333C18.3942 21.3333 19.4116 21.7548 20.1618 22.5049C20.9119 23.2551 21.3333 24.2725 21.3333 25.3333C21.3333 26.3942 20.9119 27.4116 20.1618 28.1618C19.4116 28.9119 18.3942 29.3333 17.3333 29.3333Z" stroke="#20293A" stroke-width="2.66667" stroke-linecap="round" stroke-linejoin="round"/>
</svg>
